# xmcd
#
# Track frame offsets:
#	150
#	29708
#	49579
#	73363
#	98491
#	124186
#	139933
#	160324
#	183207
#	200937
#
# Disc length: 3044 seconds
#
# Revision: 1
# Processed by: cddbd v1.5PL3 Copyright (c) Steve Scherf et al.
# Submitted via: CDex 1.50Beta5
#
DISCID=970be20a
DTITLE=Smappies - Smappies II
DYEAR=1900
DGENRE=Jazz
TTITLE0=Theme Of Smappies II (Rapsody In Blue)
TTITLE1=Slave Of Groove (Ki Ni Naru)
TTITLE2=Perfect (Duo)
TTITLE3=Moonlight (Tsuki Ni Somuite)
TTITLE4=Feeling Of Beginning
TTITLE5=Theme Of 012
TTITLE6=Eao
TTITLE7=Truth Is Just Facing You (Taisetsu)
TTITLE8=Rather Than Hearing Your Voice (Koe Wo Kiku Yorimo)
TTITLE9=Trouble
EXTD=
EXTT0=
EXTT1=
EXTT2=
EXTT3=
EXTT4=
EXTT5=
EXTT6=
EXTT7=
EXTT8=
EXTT9=
PLAYORDER=
